<?xml version="1.0" encoding="utf-8"?>
<!-- Generator: Adobe Illustrator 24.1.1, SVG Export Plug-In . SVG Version: 6.00 Build 0)  -->
<svg version="1.1" id="Шар_1" xmlns="http://www.w3.org/2000/svg" xmlns:xlink="http://www.w3.org/1999/xlink" x="0px" y="0px"
	 viewBox="0 0 54 49" style="enable-background:new 0 0 54 49;" xml:space="preserve">
<style type="text/css">
	.st0{opacity:0.75;fill:#EEEFA9;enable-background:new    ;}
	.st1{fill:#312F2F;}
</style>
<g id="Group_11" transform="translate(-342.965 -724)">
	<ellipse id="Ellipse_1" class="st0" cx="370.3" cy="748.7" rx="26" ry="23.5"/>
	<g id="cancel" transform="translate(357.965 736.998)">
		<g id="Group_10" transform="translate(0 0.001)">
			<g id="Group_9">
				<path id="Path_15" class="st1" d="M13.5,12.2l9.5-9.5c0.3-0.3,0.3-0.9,0-1.2s-0.9-0.3-1.2,0L12.3,11L2.8,1.5
					c-0.3-0.3-0.9-0.3-1.2,0s-0.3,0.9,0,1.2l9.5,9.5l-9.5,9.5c-0.3,0.3-0.3,0.9,0,1.2c0.3,0.3,0.9,0.3,1.2,0l9.5-9.5l9.5,9.5
					c0.3,0.3,0.9,0.3,1.2,0s0.3-0.9,0-1.2L13.5,12.2z"/>
			</g>
		</g>
	</g>
</g>
</svg>
