<?xml version="1.0" encoding="utf-8"?>
<!-- Generator: Adobe Illustrator 24.1.1, SVG Export Plug-In . SVG Version: 6.00 Build 0)  -->
<svg version="1.1" id="Шар_1" xmlns="http://www.w3.org/2000/svg" xmlns:xlink="http://www.w3.org/1999/xlink" x="0px" y="0px"
	 viewBox="0 0 73 67" style="enable-background:new 0 0 73 67;" xml:space="preserve">
<style type="text/css">
	.st0{opacity:0.75;fill:#EEEFA9;enable-background:new    ;}
	.st1{fill:#312F2F;}
</style>
<g id="Group_10" transform="translate(47.283 -978.316)">
	<ellipse id="Ellipse_1" class="st0" cx="-10.8" cy="1011.8" rx="36.5" ry="33.5"/>
	<g id="love-and-romance" transform="translate(-31.464 997.816)">
		<path id="Path_11" class="st1" d="M20.3,33.3c-0.6,0-1.1-0.2-1.6-0.5c-1.6-1.3-3.2-2.6-4.6-3.7l0,0c-3.6-2.6-7-5.6-10.1-8.7
			c-2.8-3.1-4-6-4-9.1c0-3,1.1-5.9,3.2-8C5.4,1.1,8.3,0,11.4,0c2.3,0,4.5,0.7,6.4,2c1,0.7,1.8,1.5,2.6,2.5c0.7-0.9,1.6-1.8,2.6-2.5
			c1.9-1.3,4.1-2,6.4-2c3,0,6,1.1,8.1,3.3c2.1,2.1,3.3,5,3.2,8c0,3.2-1.3,6.1-4,9.1c-3.1,3.2-6.5,6.1-10.1,8.7
			c-1.4,1.1-3,2.3-4.6,3.7C21.5,33.1,20.9,33.3,20.3,33.3L20.3,33.3z M11.4,2.2C9,2.2,6.7,3.1,5,4.7c-1.7,1.7-2.6,4.1-2.6,6.5
			c0,2.7,1.1,5,3.5,7.7c3,3.1,6.3,5.9,9.8,8.5l0,0c1.4,1.1,3,2.4,4.6,3.7c1.7-1.3,3.3-2.6,4.7-3.7c3.5-2.6,6.8-5.4,9.8-8.5
			c2.4-2.7,3.5-5.1,3.5-7.7c0-2.4-0.9-4.8-2.6-6.5c-1.7-1.7-4-2.6-6.4-2.6c-1.8,0-3.5,0.5-4.9,1.6c-1.1,0.8-2,1.8-2.8,2.9
			c-0.5,0.7-1.5,0.9-2.2,0.4C19.3,7,19.1,6.9,19,6.7c-0.7-1.1-1.7-2.1-2.8-2.9C14.9,2.7,13.1,2.2,11.4,2.2L11.4,2.2z"/>
	</g>
</g>
</svg>
