<?xml version="1.0" encoding="utf-8"?>
<!-- Generator: Adobe Illustrator 24.1.1, SVG Export Plug-In . SVG Version: 6.00 Build 0)  -->
<svg version="1.1" id="Шар_1" xmlns="http://www.w3.org/2000/svg" xmlns:xlink="http://www.w3.org/1999/xlink" x="0px" y="0px"
	 viewBox="0 0 501 705.8" style="enable-background:new 0 0 501 705.8;" xml:space="preserve">
<style type="text/css">
	.st0{fill:#DDD92A;}
</style>
<g>
	<g>
		<path class="st0" d="M205,536.5c-3.9,0-7,3-7.1,6.9l-0.4,30.9c0,3.9,3,7,6.9,7.1l76.5,0.9c3.9,0.1,7-3,7.1-6.9c0,0,0,0,0,0
			l0.4-30.9c0.1-3.9-3-7-6.9-7.1c0,0,0,0,0,0L205,536.5z M274.2,568.2l-62.5-0.8l0.2-16.9l62.5,0.8L274.2,568.2z"/>
		<path class="st0" d="M298.7,117.3l-14.7-0.2l0.1-5.3c0.1-9.8-7.8-17.9-17.6-18l-35.6-0.4c-9.8-0.1-17.9,7.8-18,17.6l-0.1,5.3
			l-14.7-0.2c-3.9,0-7,3-7.1,6.9c0,3.9,3,7,6.9,7.1l14.7,0.2l-0.2,17.6l-14.7-0.2c-3.9,0-7,3.2-7,7c0,3.8,3,6.8,6.8,7l14.7,0.2
			l-0.1,5.3c-0.1,7.8,4.9,14.7,12.4,17.1l-6,154.2c-43.3,3-68.3,22.3-70.4,54.7c-1.1,17.2,5.4,29.4,11.1,40.2
			c9.1,17,16.3,30.5-6.3,62.3c-46.6,65.9-31,108.8-25.1,120.4c15.6,30.6,53.9,46.5,113.7,47.3c48.3,0.6,82.8-9,102.9-28.7
			c4.8-4.6,8.8-10,12-15.8c6.2-11.4,22.9-54-22.1-121c-21.8-32.4-14.3-45.7-4.8-62.5c6-10.6,12.8-22.7,12.1-39.9
			c-1.3-32.5-25.8-52.4-69-56.4l-2.2-154.3c7.5-2.1,12.7-9,12.8-16.8l0.1-5.3l14.7,0.2c3.9,0,7-3.2,7-7c0-3.8-3-6.8-6.8-7l-14.7-0.2
			l0.2-17.6l14.7,0.2c3.9,0,7-3,7.1-6.9S302.6,117.4,298.7,117.3L298.7,117.3z M259.7,397.7c-9.4-3.6-19.8-3.7-29.3-0.4l2-51
			c0.1-0.5,0.1-1,0.1-1.4c0-0.1,0-0.2,0-0.3l6.1-159.3l18.1,0.2L259.7,397.7z M273.7,438.5c-0.2,16.1-13.5,29-29.6,28.8
			c-16.1-0.2-29-13.5-28.8-29.6c0.2-16.1,13.4-29,29.5-28.8C261,409.1,273.9,422.3,273.7,438.5L273.7,438.5z M327.9,396.1
			c0.5,13.2-4.7,22.6-10.3,32.4c-10,17.6-21.3,37.6,5.3,77.2c21.2,31.5,37.9,76,21.4,106.5c-13.7,25.3-48.1,37.8-102.4,37.1
			c-54.2-0.7-88.4-14-101.4-39.6c-15.7-30.9,2.1-75,24-106c27.6-38.9,16.7-59.2,7.2-77c-5.3-10-10.4-19.5-9.5-32.7
			c2-30.2,30-39.5,55.9-41.6l-2.1,53.1c-18,15.7-19.8,43-4.1,61s43,19.8,61,4.1s19.8-43,4.1-61c-1-1.2-2.1-2.3-3.2-3.3l-0.8-53.2
			C298.9,355.9,326.6,365.9,327.9,396.1L327.9,396.1z M265.6,171.6l-35.6-0.4c-2.1,0-3.8-1.8-3.8-3.9c0,0,0,0,0,0l0.1-11.1
			c0.1-0.4,0.1-0.8,0.1-1.2c0-0.4,0-0.8-0.1-1.2l0.4-29.2c0.1-0.4,0.1-0.8,0.1-1.2c0-0.4,0-0.8-0.1-1.2l0.1-11.1
			c0-2.1,1.8-3.8,3.9-3.8l35.6,0.4c2.1,0,3.8,1.8,3.8,3.9c0,0,0,0,0,0l-0.7,56.2C269.3,170,267.6,171.6,265.6,171.6L265.6,171.6z"/>
	</g>
	<g>
		<g>
			<g>
				<path class="st0" d="M181.6,353.4c5.5-3.2,13.3-4.9,20.3-4c0.1-3.4,0.3-6.8,0.6-10.1c-11.6-15.4-28.9-40.8-39.9-69.6
					c7.7-10.6,16.2-22.5,19-36.9c0.7-3.1,0.7-6.9,1.4-10.6c0.7-6.3-4.9-12.5-12.7-13.1c-7-0.6-14.1,4.4-14.8,11.3
					c-0.7,3.1-0.7,6.3-1.4,8.8c0,1.9-0.7,3.8-1.4,5c-2.8-20.6-1.4-41.9,9.2-61.3c3.5-6.3,0.7-13.1-6.3-16.3
					c-7-3.1-14.8-0.6-18.3,5.6c-4.9,8.8-8.5,18.1-10.6,27.5l-5.6-15.6c-2.8-6.9-10.6-10-17.6-8.1c-7.7,2.5-11.3,9.4-9.2,15.6l7,18.8
					c1.4,3.1,2.8,6.9,4.2,10.6c4.9,9.4,12.7,16.9,19,23.1c0,0,0,0,0.7,0c2.8,25,12.7,48.8,23.2,70h-1.4c-2.8,0.6-5.6,0.6-7.7,0
					c-2.8-0.6-6.3-3.1-9.2-5c-9.2-6.3-17.6-13.1-26.1-20.6c-5.6-5-14.1-5-19.7,0c-5.6,5-5.6,12.5,0,17.5
					c8.5,8.1,18.3,15.6,28.9,22.5c4.9,3.1,11.3,6.9,19,8.8c3.5,1.2,7,1.2,10.6,1.2h4.9l14.1-0.6c6.6,10.7,13.1,19.5,18.4,26.4
					C180.7,353.9,181.1,353.6,181.6,353.4z"/>
				<path class="st0" d="M405.6,278.4c-5.6-5-14.1-5-19.7,0c-7.7,7.5-16.9,14.4-26.1,20.6c-3.5,2.5-6.3,4.4-9.2,5h-9.2
					c10.6-20.6,20.4-45,23.2-70c0.7,0,0.7-0.6,1.4-0.6c7-6.3,14.1-13.8,19-23.1c1.4-3.8,2.8-7.5,4.2-10.6l7-18.8
					c2.1-6.9-2.1-13.8-9.2-15.6c-7.7-1.9-15.5,1.9-17.6,8.1l-6.3,16.9c-2.1-9.4-5.6-18.8-10.6-28.1c-3.5-6.3-11.3-8.8-18.3-5.6
					c-7,3.1-9.9,10-6.3,16.3c10.6,19.4,12.7,40.6,9.2,61.3c-0.7-1.9-1.4-3.1-1.4-5c-0.7-3.1-1.4-5.6-1.4-8.8
					c-0.7-6.9-7-11.9-14.8-11.3c-7.7,0.6-13.4,6.3-12.7,13.1c0,3.8,0.7,7.5,1.4,11.3c3.5,14.4,11.3,26.3,19,36.9
					c-13.1,33-33.4,61.2-44.7,75.1c0.4,1.3,0.8,2.5,1.2,3.8c6.4,0,12.7,2.8,17.6,6.6c0.9,0.6,1.7,1.2,2.5,1.9
					c0.2-0.2,0.3-0.5,0.5-0.7c2.4-3.1,4.9-5.6,7.7-7.4c4.5-6.2,9.8-13.5,15.2-21.7l14.1,0.6h4.9c3.5,0,7,0,10.6-1.2
					c7.7-1.2,14.1-5,19-8.8c9.9-6.9,19.7-14.4,28.9-22.5C411.3,290.9,411.3,283.4,405.6,278.4z"/>
			</g>
		</g>
	</g>
</g>
</svg>
